<svg xmlns="http://www.w3.org/2000/svg" version="1.1" xmlns:xlink="http://www.w3.org/1999/xlink" xmlns:svgjs="http://svgjs.com/svgjs" width="512" height="512" x="0" y="0" viewBox="0 0 52 58" style="enable-background:new 0 0 512 512" xml:space="preserve" class=""><g><g xmlns="http://www.w3.org/2000/svg" id="Page-1" fill="none" fill-rule="evenodd"><g id="013---Remote" fill-rule="nonzero" transform="translate(0 -1)"><path id="Shape" d="m52 47v9c0 1.6568542-1.3431458 3-3 3h-46c-1.65685425 0-3-1.3431458-3-3v-9z" fill="#5942a5" data-original="#285680" class=""></path><path id="Shape" d="m23 10h26c1.6568542 0 3 1.3431458 3 3v34c0 1.6568542-1.3431458 3-3 3h-46c-1.65685425 0-3-1.3431458-3-3v-34c0-1.6568542 1.34314575-3 3-3z" fill="#b86dff" data-original="#4482c3" class=""></path><path id="Shape" d="m17 30.47c2.93.97 5 3.3 5 6.03 0 3.59-3.58 6.5-8 6.5s-8-2.91-8-6.5c0-2.73 2.07-5.06 5-6.03z" fill="#5942a5" data-original="#285680" class=""></path><path id="Shape" d="m45 22v4c0 .5522847-.4477153 1-1 1h-4v4c0 .5522847-.4477153 1-1 1h-4c-.5522847 0-1-.4477153-1-1v-4h-4c-.5522847 0-1-.4477153-1-1v-4c0-.5522847.4477153-1 1-1h4v-4c0-.5522847.4477153-1 1-1h4c.5522847 0 1 .4477153 1 1v4h4c.5522847 0 1 .4477153 1 1z" fill="#e8f129" data-original="#f29c1f" class=""></path><ellipse id="Oval" cx="31" cy="41" fill="#2eeb71" rx="4" ry="3" data-original="#f3d55b" class=""></ellipse><ellipse id="Oval" cx="43" cy="41" fill="#2eeb71" rx="4" ry="3" data-original="#f3d55b" class=""></ellipse><path id="Shape" d="m23 10c.0034665 3.8139218-2.4023008 7.2140729-6 8.48-1.9399133.6933206-4.0600867.6933206-6 0-4.3158054-1.5258685-6.79872666-6.0481972-5.76961068-10.50862 1.02911599-4.46042276 5.24238078-7.43779656 9.79044238-6.91857929s7.9818542 4.36959689 7.9791683 8.94719929z" fill="#e8f129" data-original="#f29c1f" class=""></path><path id="Shape" d="m9 11c-.55228475 0-1-.4477153-1-1 .00330738-3.31233757 2.6876624-5.99669262 6-6 .5522847.00000001 1 .44771526 1 1s-.4477153.99999999-1 1c-2.209139 0-4 1.790861-4 4 0 .5522847-.44771525 1-1 1z" fill="#ffffff" data-original="#ffffff" class=""></path><path id="Shape" d="m17 18.48v16.52c0 1.6568542-1.3431458 3-3 3s-3-1.3431458-3-3v-16.52c1.9399133.6933206 4.0600867.6933206 6 0z" fill="#bdc3c7" data-original="#bdc3c7" class=""></path></g></g></g></svg>