<svg xmlns="http://www.w3.org/2000/svg" version="1.1" xmlns:xlink="http://www.w3.org/1999/xlink" xmlns:svgjs="http://svgjs.com/svgjs" width="512" height="512" x="0" y="0" viewBox="0 0 511.984 511.984" style="enable-background:new 0 0 512 512" xml:space="preserve" class=""><g>
<path xmlns="http://www.w3.org/2000/svg" style="" d="M405.114,85.223H128.155l0,0c-5.875,0-10.656-4.781-10.656-10.655  c0-5.875,4.781-10.648,10.656-10.648v-0.009h117.184c17.641,0,31.952-14.304,31.952-31.952V10.656  C277.291,4.773,272.525,0,266.635,0c-5.874,0-10.656,4.773-10.656,10.656V31.96c0,5.875-4.781,10.648-10.64,10.648H128.155v0.008  c-17.656,0-31.952,14.304-31.952,31.952c0,17.647,14.296,31.959,31.952,31.959l0,0h276.959c5.875,0,10.656,4.773,10.656,10.648  s-4.781,10.656-10.656,10.656H287.946l0,0c-17.655,0-31.967,14.304-31.967,31.952v47.271h21.312v-47.271  c0-5.867,4.78-10.648,10.655-10.648l0,0h117.168c17.656,0,31.969-14.312,31.969-31.96C437.083,99.528,422.77,85.223,405.114,85.223z  " fill="#434a54" data-original="#434a54" class=""></path>
<path xmlns="http://www.w3.org/2000/svg" style="" d="M282.618,191.743h-31.967c-5.875,0-10.64,4.765-10.64,10.648v74.568  c0,5.875,4.766,10.654,10.64,10.654h31.967c5.875,0,10.656-4.779,10.656-10.654v-74.568  C293.274,196.509,288.493,191.743,282.618,191.743z" fill="#656d78" data-original="#656d78" class=""></path>
<path xmlns="http://www.w3.org/2000/svg" style="" d="M511.642,436.704c-0.031-6.109-1.734-21.812-7.983-42.029c-7.656-24.859-19.266-47.779-34.484-68.154  c-20.327-27.172-46.482-48.748-77.763-64.092c-37.921-18.617-83.481-28.062-135.417-28.077  c-51.873,0.016-97.465,9.679-135.496,28.741c-31.202,15.633-57.357,37.553-77.748,65.146c-35.217,47.654-42.42,97.715-42.42,108.512  c0,9.266,0,26.516,6.016,42.389c8.156,21.484,24.483,32.844,47.232,32.844h0.016c45.233-0.016,78.826-12.062,111.309-23.719  c29.28-10.5,56.936-20.438,91.185-20.438c34.233,0,61.842,9.938,91.059,20.438c32.438,11.656,65.982,23.719,111.231,23.719  c14.983,0,27.124-4.562,36.093-13.594C511.846,480.952,511.721,452.157,511.642,436.704z" fill="#434a54" data-original="#434a54" class=""></path>
<path xmlns="http://www.w3.org/2000/svg" style="" d="M202.731,372.831c0,29.422-23.859,53.264-53.264,53.264c-29.421,0-53.264-23.842-53.264-53.264  c0-29.404,23.843-53.264,53.264-53.264C178.872,319.567,202.731,343.427,202.731,372.831z" fill="#656d78" data-original="#656d78" class=""></path>
<g xmlns="http://www.w3.org/2000/svg">
	<path style="" d="M149.467,404.8c-5.89,0-10.656-4.781-10.656-10.656v-42.625c0-5.873,4.766-10.639,10.656-10.639   c5.875,0,10.64,4.766,10.64,10.639v42.625C160.107,400.018,155.342,404.8,149.467,404.8z" fill="#434a54" data-original="#434a54" class=""></path>
	<path style="" d="M170.763,383.487h-42.608c-5.875,0-10.656-4.781-10.656-10.656s4.781-10.656,10.656-10.656h42.608   c5.89,0,10.656,4.781,10.656,10.656S176.653,383.487,170.763,383.487z" fill="#434a54" data-original="#434a54" class=""></path>
</g>
<g xmlns="http://www.w3.org/2000/svg">
	<path style="" d="M338.086,343.989c4.155,4.156,4.155,10.904,0,15.061c-4.156,4.172-10.906,4.172-15.062,0   c-4.156-4.156-4.156-10.904,0-15.061C327.18,339.833,333.93,339.833,338.086,343.989z" fill="#aab2bc" data-original="#aab2bc"></path>
	<path style="" d="M380.694,333.333c4.156,4.172,4.156,10.906,0,15.076c-4.156,4.156-10.906,4.156-15.062,0   c-4.156-4.17-4.156-10.904,0-15.076C369.788,329.177,376.538,329.177,380.694,333.333z" fill="#aab2bc" data-original="#aab2bc"></path>
	<path style="" d="M423.302,322.692c4.156,4.156,4.156,10.906,0,15.062c-4.156,4.172-10.906,4.172-15.062,0   c-4.156-4.156-4.156-10.906,0-15.062C412.395,318.52,419.145,318.52,423.302,322.692z" fill="#aab2bc" data-original="#aab2bc"></path>
</g>
<g xmlns="http://www.w3.org/2000/svg">
	<path style="" d="M362.507,404.8c0,11.748-9.531,21.295-21.296,21.295c-11.781,0-21.312-9.547-21.312-21.295   c0-11.781,9.53-21.312,21.312-21.312C352.975,383.487,362.507,393.018,362.507,404.8z" fill="#656d78" data-original="#656d78" class=""></path>
	<path style="" d="M405.114,394.143c0,11.748-9.53,21.295-21.295,21.295c-11.766,0-21.312-9.547-21.312-21.295   c0-11.781,9.547-21.312,21.312-21.312S405.114,382.362,405.114,394.143z" fill="#656d78" data-original="#656d78" class=""></path>
	<path style="" d="M447.722,383.487c0,11.766-9.53,21.312-21.296,21.312s-21.312-9.547-21.312-21.312   s9.547-21.312,21.312-21.312S447.722,371.721,447.722,383.487z" fill="#656d78" data-original="#656d78" class=""></path>
</g>
<path xmlns="http://www.w3.org/2000/svg" style="" d="M277.291,383.487h-21.312c-5.875,0-10.64-4.781-10.64-10.656s4.766-10.656,10.64-10.656h21.312  c5.89,0,10.655,4.781,10.655,10.656S283.18,383.487,277.291,383.487z" fill="#5d9cec" data-original="#5d9cec"></path>
<g xmlns="http://www.w3.org/2000/svg" style="opacity:0.2;">
	<path d="M298.587,298.27h-63.904c-5.891,0-10.656-4.781-10.656-10.656c0-5.873,4.766-10.654,10.656-10.654h63.904   c5.891,0,10.656,4.781,10.656,10.654C309.243,293.489,304.477,298.27,298.587,298.27z" fill="#000000" data-original="#000000" class=""></path>
</g>
<g xmlns="http://www.w3.org/2000/svg">
</g>
<g xmlns="http://www.w3.org/2000/svg">
</g>
<g xmlns="http://www.w3.org/2000/svg">
</g>
<g xmlns="http://www.w3.org/2000/svg">
</g>
<g xmlns="http://www.w3.org/2000/svg">
</g>
<g xmlns="http://www.w3.org/2000/svg">
</g>
<g xmlns="http://www.w3.org/2000/svg">
</g>
<g xmlns="http://www.w3.org/2000/svg">
</g>
<g xmlns="http://www.w3.org/2000/svg">
</g>
<g xmlns="http://www.w3.org/2000/svg">
</g>
<g xmlns="http://www.w3.org/2000/svg">
</g>
<g xmlns="http://www.w3.org/2000/svg">
</g>
<g xmlns="http://www.w3.org/2000/svg">
</g>
<g xmlns="http://www.w3.org/2000/svg">
</g>
<g xmlns="http://www.w3.org/2000/svg">
</g>
</g></svg>