<svg xmlns="http://www.w3.org/2000/svg" version="1.1" xmlns:xlink="http://www.w3.org/1999/xlink" xmlns:svgjs="http://svgjs.com/svgjs" width="512" height="512" x="0" y="0" viewBox="0 0 512 512" style="enable-background:new 0 0 512 512" xml:space="preserve" class=""><g><path xmlns="http://www.w3.org/2000/svg" d="m317.800781 406.070312v60.449219c.101563 6.441407-3.3125 12.425781-8.910156 15.617188-18.289063 9.902343-65.605469 29.863281-149.988281 29.863281-84.382813 0-131.699219-19.960938-149.988282-29.863281-5.597656-3.191407-9.0117182-9.175781-8.9062495-15.617188l-.00390625-60.449219zm0 0" fill="#9479d9" data-original="#9479d9" class=""></path><path xmlns="http://www.w3.org/2000/svg" d="m317.800781 17.65625v413.554688c.101563 6.4375-3.3125 12.425781-8.910156 15.613281-18.289063 9.90625-65.605469 29.867187-149.988281 29.867187-84.382813 0-131.699219-19.960937-149.988282-29.867187-5.597656-3.1875-9.0117182-9.175781-8.9062495-15.613281v-413.554688c-.1210935-4.566406 1.5781255-8.996094 4.7226565-12.304688 3.148437-3.3125 7.480469-5.238281 12.046875-5.351562h284.335937c9.476563.285156 16.9375 8.179688 16.6875 17.65625zm0 0" fill="#ab91e9" data-original="#ab91e9" class=""></path><path xmlns="http://www.w3.org/2000/svg" d="m158.902344 238.34375c-40.292969 1.15625-80.4375-5.363281-118.289063-19.214844-3.277343-1.429687-5.371093-4.699218-5.296875-8.273437v-166.71875c-.152344-4.707031 3.527344-8.652344 8.234375-8.828125h230.703125c4.707032.175781 8.390625 4.121094 8.234375 8.828125v166.703125c.074219 3.574218-2.019531 6.839844-5.296875 8.269531-37.851562 13.855469-77.996094 20.386719-118.289062 19.234375zm0 0" fill="#636c77" data-original="#636c77" class=""></path><path xmlns="http://www.w3.org/2000/svg" d="m79.453125 70.621094h158.898437c4.875 0 8.828126 3.953125 8.828126 8.828125v105.929687c0 4.875-3.953126 8.828125-8.828126 8.828125h-158.898437c-4.875 0-8.828125-3.953125-8.828125-8.828125v-105.929687c0-4.875 3.953125-8.828125 8.828125-8.828125zm0 0" fill="#4fbfe7" data-original="#4fbfe7" class=""></path><path xmlns="http://www.w3.org/2000/svg" d="m168.507812 194.207031h-70.621093l51.410156-123.585937h70.621094zm0 0" fill="#66d3f0" data-original="#66d3f0" class=""></path><path xmlns="http://www.w3.org/2000/svg" d="m282.488281 282.484375c0 9.75-7.902343 17.652344-17.65625 17.652344-9.75 0-17.652343-7.902344-17.652343-17.652344 0-9.753906 7.902343-17.65625 17.652343-17.65625 9.753907 0 17.65625 7.902344 17.65625 17.65625zm0 0" fill="#636c77" data-original="#636c77" class=""></path><path xmlns="http://www.w3.org/2000/svg" d="m220.695312 317.792969c0 9.75-7.902343 17.65625-17.65625 17.65625-9.75 0-17.652343-7.90625-17.652343-17.65625s7.902343-17.65625 17.652343-17.65625c9.753907 0 17.65625 7.90625 17.65625 17.65625zm0 0" fill="#636c77" data-original="#636c77" class=""></path><path xmlns="http://www.w3.org/2000/svg" d="m317.800781 431.226562v35.3125c.101563 6.445313-3.316406 12.433594-8.917969 15.625-18.273437 9.886719-65.589843 29.835938-149.980468 29.835938-3 0-5.914063 0-8.828125-.089844 78.917969-1.324218 123.5-20.214844 141.152343-29.746094 5.601563-3.191406 9.019532-9.179687 8.917969-15.625v-15.273437c3.441407-1.675781 6.355469-3.089844 8.738281-4.414063 5.601563-3.1875 9.019532-9.179687 8.917969-15.625zm0 0" fill="#7e6ac6" data-original="#7e6ac6"></path><path xmlns="http://www.w3.org/2000/svg" d="m317.800781 17.65625v413.570312c.101563 6.445313-3.316406 12.4375-8.917969 15.625-2.382812 1.324219-5.296874 2.738282-8.738281 4.414063v-433.609375c.230469-9.46875-7.21875-17.355469-16.683593-17.65625h17.652343c9.46875.300781 16.917969 8.1875 16.6875 17.65625zm0 0" fill="#9479d9" data-original="#9479d9" class=""></path><path xmlns="http://www.w3.org/2000/svg" d="m141.246094 361.929688h-17.652344c-4.875 0-8.828125 3.953124-8.828125 8.828124s3.953125 8.828126 8.828125 8.828126h17.652344c4.875 0 8.828125-3.953126 8.828125-8.828126s-3.953125-8.828124-8.828125-8.828124zm0 0" fill="#636c77" data-original="#636c77" class=""></path><path xmlns="http://www.w3.org/2000/svg" d="m194.214844 361.929688h-17.65625c-4.875 0-8.828125 3.953124-8.828125 8.828124s3.953125 8.828126 8.828125 8.828126h17.65625c4.875 0 8.824218-3.953126 8.824218-8.828126s-3.949218-8.828124-8.824218-8.828124zm0 0" fill="#636c77" data-original="#636c77" class=""></path><path xmlns="http://www.w3.org/2000/svg" d="m88.28125 291.308594h-17.65625v-17.652344c0-4.875-3.949219-8.828125-8.824219-8.828125-4.878906 0-8.828125 3.953125-8.828125 8.828125v17.652344h-17.65625c-4.875 0-8.828125 3.953125-8.828125 8.828125s3.953125 8.828125 8.828125 8.828125h17.65625v17.65625c0 4.875 3.949219 8.828125 8.828125 8.828125 4.875 0 8.824219-3.953125 8.824219-8.828125v-17.65625h17.65625c4.875 0 8.828125-3.953125 8.828125-8.828125s-3.953125-8.828125-8.828125-8.828125zm0 0" fill="#636c77" data-original="#636c77" class=""></path><g xmlns="http://www.w3.org/2000/svg" fill="#9479d9"><path d="m256.007812 379.585938c0-4.875-3.953124-8.828126-8.828124-8.828126s-8.828126 3.953126-8.828126 8.828126v8.828124c0 4.875 3.953126 8.828126 8.828126 8.828126s8.828124-3.953126 8.828124-8.828126zm0 0" fill="#9479d9" data-original="#9479d9" class=""></path><path d="m282.488281 370.757812c-4.875 0-8.828125 3.953126-8.828125 8.828126v8.828124c0 4.875 3.953125 8.828126 8.828125 8.828126s8.828125-3.953126 8.828125-8.828126v-8.828124c0-4.875-3.953125-8.828126-8.828125-8.828126zm0 0" fill="#9479d9" data-original="#9479d9" class=""></path><path d="m229.523438 406.070312c-4.875 0-8.828126 3.949219-8.828126 8.828126v8.824218c0 4.875 3.953126 8.828125 8.828126 8.828125s8.828124-3.953125 8.828124-8.828125v-8.824218c0-4.878907-3.953124-8.828126-8.828124-8.828126zm0 0" fill="#9479d9" data-original="#9479d9" class=""></path><path d="m264.832031 406.070312c-4.875 0-8.824219 3.949219-8.824219 8.828126v8.824218c0 4.875 3.949219 8.828125 8.824219 8.828125s8.828125-3.953125 8.828125-8.828125v-8.824218c0-4.878907-3.953125-8.828126-8.828125-8.828126zm0 0" fill="#9479d9" data-original="#9479d9" class=""></path></g></g></svg>