<svg xmlns="http://www.w3.org/2000/svg" version="1.1" xmlns:xlink="http://www.w3.org/1999/xlink" xmlns:svgjs="http://svgjs.com/svgjs" width="512" height="512" x="0" y="0" viewBox="0 0 512 512.00107" style="enable-background:new 0 0 512 512" xml:space="preserve" class=""><g><path xmlns="http://www.w3.org/2000/svg" d="m458.675781 388.414062c-40.339843 0-49.960937-77.242187-52.167969-113.699218-.617187-10.550782-9.382812-18.773438-19.953124-18.714844-23.253907.109375-42.457032 18.195312-43.960938 41.402344-4.234375 72.386718-20.921875 214.597656-86.597656 214.597656-65.675782 0-82.363282-142.210938-86.597656-214.597656-1.503907-23.207032-20.707032-41.292969-43.960938-41.402344-10.570312-.058594-19.335938 8.164062-19.953125 18.714844-2.207031 36.457031-11.828125 113.699218-52.167969 113.699218-61.707031 0-52.878906-229.515624-52.878906-229.515624-.027344-30.414063 12.03125-59.59375 33.519531-81.113282 21.492188-21.523437 50.648438-33.625 81.0625-33.648437h26.394531c1.160157-4.011719 3.144532-7.742188 5.824219-10.945313 10.066407-13.066406 37.34375-33.191406 108.757813-33.191406 71.945312 0 99.046875 20.390625 108.933594 33.457031 2.617187 3.121094 4.542968 6.761719 5.648437 10.679688h26.394531c30.414063.023437 59.570313 12.125 81.0625 33.648437 21.488282 21.519532 33.546875 50.699219 33.519532 81.113282 0 0 8.828124 229.515624-52.878907 229.515624zm0 0" fill="#ff4d4d" data-original="#5e9be9" class=""></path><path xmlns="http://www.w3.org/2000/svg" d="m273.652344 167.722656c0 9.753906-7.90625 17.65625-17.65625 17.65625s-17.65625-7.902344-17.65625-17.65625c0-9.75 7.90625-17.652344 17.65625-17.652344s17.65625 7.902344 17.65625 17.652344zm0 0" fill="#9b2732" data-original="#d84452" class=""></path><path xmlns="http://www.w3.org/2000/svg" d="m344.273438 158.898438c0 9.75-7.90625 17.652343-17.65625 17.652343s-17.65625-7.902343-17.65625-17.652343c0-9.753907 7.90625-17.65625 17.65625-17.65625s17.65625 7.902343 17.65625 17.65625zm0 0" fill="#61dcbb" data-original="#61dcbb" class=""></path><path xmlns="http://www.w3.org/2000/svg" d="m388.410156 203.035156c0 9.75-7.90625 17.65625-17.65625 17.65625s-17.65625-7.90625-17.65625-17.65625 7.90625-17.65625 17.65625-17.65625 17.65625 7.90625 17.65625 17.65625zm0 0" fill="#32aecc" data-original="#327bcc" class=""></path><path xmlns="http://www.w3.org/2000/svg" d="m308.960938 282.484375c0 29.25-23.710938 52.964844-52.964844 52.964844s-52.964844-23.714844-52.964844-52.964844c0-29.253906 23.710938-52.96875 52.964844-52.96875s52.964844 23.714844 52.964844 52.96875zm0 0" fill="#ffffff" data-original="#424852" class=""></path><path xmlns="http://www.w3.org/2000/svg" d="m141.238281 158.898438c0 29.25-23.714843 52.964843-52.964843 52.964843-29.253907 0-52.96875-23.714843-52.96875-52.964843 0-29.253907 23.714843-52.96875 52.96875-52.96875 29.25 0 52.964843 23.714843 52.964843 52.96875zm0 0" fill="#bd4141" data-original="#4a87d9" class=""></path><path xmlns="http://www.w3.org/2000/svg" d="m220.6875 44.136719h70.617188c9.753906 0 17.65625 7.90625 17.65625 17.65625s-7.902344 17.65625-17.65625 17.65625h-70.617188c-9.753906 0-17.65625-7.90625-17.65625-17.65625s7.902344-17.65625 17.65625-17.65625zm0 0" fill="#bd4141" data-original="#4a87d9" class=""></path><path xmlns="http://www.w3.org/2000/svg" d="m273.652344 282.484375c0 9.75-7.90625 17.652344-17.65625 17.652344s-17.65625-7.902344-17.65625-17.652344c0-9.753906 7.90625-17.65625 17.65625-17.65625s17.65625 7.902344 17.65625 17.65625zm0 0" fill="#f3f5f7" data-original="#f3f5f7" class=""></path><g xmlns="http://www.w3.org/2000/svg" fill="#4a87d9"><path d="m376.140625 257.324219c-7.40625 1.722656-14.207031 5.410156-19.6875 10.679687-8.226563 7.652344-13.191406 18.179688-13.859375 29.398438-4.234375 72.386718-20.921875 214.597656-86.597656 214.597656-2.9375.019531-5.867188-.273438-8.738282-.882812 58.261719-12.269532 73.621094-144.683594 77.683594-213.714844 1.5-23.207032 20.703125-41.292969 43.960938-41.402344 2.472656-.019531 4.929687.429688 7.238281 1.324219zm0 0" fill="#bd4141" data-original="#4a87d9" class=""></path><path d="m118.199219 257.324219c-7.289063 2.792969-12.265625 9.597656-12.714844 17.390625-2.207031 36.457031-11.828125 113.699218-52.167969 113.699218-2.875.019532-5.722656-.519531-8.386718-1.589843 32.574218-10.769531 40.871093-78.652344 42.902343-112.109375.613281-10.550782 9.378907-18.773438 19.949219-18.714844 3.515625-.011719 7.015625.433594 10.417969 1.324219zm0 0" fill="#bd4141" data-original="#4a87d9" class=""></path><path d="m370.578125 44.136719-17.480469 35.3125-.140625-28.769531c.050781-6.128907-1.894531-12.109376-5.542969-17.039063l-.140624-.183594c-9.445313-12.535156-34.691407-31.691406-100.015626-33.28125 2.824219-.175781 5.738282-.175781 8.738282-.175781 71.945312 0 99.046875 20.390625 108.933594 33.457031 2.617187 3.121094 4.542968 6.761719 5.648437 10.679688zm0 0" fill="#bd4141" data-original="#4a87d9" class=""></path><path d="m458.675781 388.414062c-3.15625.019532-6.292969-.519531-9.265625-1.589843 52.523438-19.949219 44.488282-227.925781 44.488282-227.925781.027343-30.414063-12.03125-59.59375-33.519532-81.113282-21.488281-21.523437-50.648437-33.625-81.0625-33.648437h17.65625c30.414063.023437 59.570313 12.125 81.0625 33.648437 21.488282 21.519532 33.546875 50.699219 33.519532 81.113282 0 0 8.828124 229.515624-52.878907 229.515624zm0 0" fill="#bd4141" data-original="#4a87d9" class=""></path></g><path xmlns="http://www.w3.org/2000/svg" d="m308.960938 282.484375c0 29.25-23.710938 52.964844-52.964844 52.964844-2.960938.003906-5.914063-.261719-8.828125-.796875 25.476562-4.28125 44.128906-26.335938 44.128906-52.167969s-18.652344-47.886719-44.128906-52.171875c2.914062-.535156 5.867187-.800781 8.828125-.796875 14.046875 0 27.519531 5.582031 37.453125 15.515625 9.933593 9.933594 15.511719 23.402344 15.511719 37.453125zm0 0" fill="#d5d5d5" data-original="#343a42" class=""></path><path xmlns="http://www.w3.org/2000/svg" d="m114.753906 150.070312h-17.65625v-17.65625c0-4.875-3.949218-8.828124-8.824218-8.828124s-8.828126 3.953124-8.828126 8.828124v17.65625h-17.65625c-4.875 0-8.828124 3.949219-8.828124 8.828126 0 4.875 3.953124 8.824218 8.828124 8.824218h17.65625v17.65625c0 4.875 3.953126 8.828125 8.828126 8.828125s8.824218-3.953125 8.824218-8.828125v-17.65625h17.65625c4.875 0 8.828125-3.949218 8.828125-8.824218 0-4.878907-3.953125-8.828126-8.828125-8.828126zm0 0" fill="#ffffff" data-original="#424852" class=""></path><path xmlns="http://www.w3.org/2000/svg" d="m164.71875 114.316406c-.886719.277344-1.808594.425782-2.738281.441406-3.785157-.015624-7.148438-2.421874-8.382813-6l-21.363281-64.621093h9.179687c1.160157-4.011719 3.144532-7.742188 5.824219-10.945313l23.128907 69.914063c1.523437 4.65625-1 9.667969-5.648438 11.210937zm0 0" fill="#bd4141" data-original="#4a87d9" class=""></path><path xmlns="http://www.w3.org/2000/svg" d="m380.023438 44.136719-21.628907 64.621093c-1.234375 3.578126-4.597656 5.984376-8.382812 6-.929688-.015624-1.851563-.164062-2.738281-.441406-4.648438-1.542968-7.171876-6.554687-5.648438-11.210937l23.304688-69.648438c2.617187 3.121094 4.542968 6.761719 5.648437 10.679688zm0 0" fill="#bd4141" data-original="#4a87d9" class=""></path><path xmlns="http://www.w3.org/2000/svg" d="m423.71875 185.378906c-4.875 0-8.824219-3.953125-8.824219-8.828125v-17.652343c0-4.878907 3.949219-8.828126 8.824219-8.828126s8.828125 3.949219 8.828125 8.828126v17.652343c0 4.875-3.953125 8.828125-8.828125 8.828125zm0 0" fill="#fccc56" data-original="#fccc56" class=""></path><path xmlns="http://www.w3.org/2000/svg" d="m423.71875 114.757812c-4.875 0-8.824219-3.953124-8.824219-8.828124v-17.652344c0-4.875 3.949219-8.828125 8.824219-8.828125s8.828125 3.953125 8.828125 8.828125v17.652344c0 4.875-3.953125 8.828124-8.828125 8.828124zm0 0" fill="#fccc56" data-original="#fccc56" class=""></path><path xmlns="http://www.w3.org/2000/svg" d="m467.859375 141.242188h-17.65625c-4.875 0-8.828125-3.953126-8.828125-8.828126s3.953125-8.828124 8.828125-8.828124h17.65625c4.875 0 8.828125 3.953124 8.828125 8.828124s-3.953125 8.828126-8.828125 8.828126zm0 0" fill="#fccc56" data-original="#fccc56" class=""></path><path xmlns="http://www.w3.org/2000/svg" d="m397.238281 141.242188h-17.65625c-4.875 0-8.828125-3.953126-8.828125-8.828126s3.953125-8.828124 8.828125-8.828124h17.65625c4.875 0 8.828125 3.953124 8.828125 8.828124s-3.953125 8.828126-8.828125 8.828126zm0 0" fill="#fccc56" data-original="#fccc56" class=""></path></g></svg>