<svg xmlns="http://www.w3.org/2000/svg" version="1.1" xmlns:xlink="http://www.w3.org/1999/xlink" xmlns:svgjs="http://svgjs.com/svgjs" width="512" height="512" x="0" y="0" viewBox="0 0 511 511.99978" style="enable-background:new 0 0 512 512" xml:space="preserve" class=""><g><path xmlns="http://www.w3.org/2000/svg" d="m200.09375 138.847656v34.710938c0 4.792968-3.886719 8.679687-8.679688 8.679687h-49.03125l14.320313-52.070312zm0 0" fill="#636c77" data-original="#636c77" class=""></path><path xmlns="http://www.w3.org/2000/svg" d="m201.222656 43.390625h171.65625c6.253906-.003906 12.453125-1.121094 18.3125-3.296875l48.855469-22.21875c2.667969-.992188 5.65625-.613281 7.992187 1.015625 2.335938 1.625 3.722657 4.296875 3.714844 7.144531v8.675782c0 4.792968 3.886719 8.679687 8.679688 8.679687h18.570312c7.746094-.011719 14.554688 5.128906 16.660156 12.582031l7.464844 26.035156c1.496094 5.230469.449219 10.863282-2.824218 15.210938-3.273438 4.347656-8.394532 6.910156-13.839844 6.917969h-277.695313zm0 0" fill="#4197e7" data-original="#e75841" class=""></path><path xmlns="http://www.w3.org/2000/svg" d="m148.023438 52.066406-17.355469-34.710937h-45.929688c-2.316406 0-4.53125-.9375-6.136719-2.601563l-13.996093-13.425781c-.847657-.898437-2.039063-1.3789062-3.269531-1.32421875-1.234376.05859375-2.378907.64843775-3.136719 1.61718775l-40.34375 50.445312v17.355469h130.167969zm0 0" fill="#4197e7" data-original="#e75841" class=""></path><path xmlns="http://www.w3.org/2000/svg" d="m165.382812 104.136719v34.710937l-53.71875 101.53125c-8.023437 15.035156-14.144531 31.007813-18.222656 47.554688-4.09375 16.496094-6.160156 33.425781-6.160156 50.421875.007812 9.601562-7.753906 17.402343-17.359375 17.441406h-52.066406c-9.574219-.027344-17.328125-7.78125-17.355469-17.355469v-30.460937c0-4.339844.171875-8.675781.605469-13.015625.378906-5.796875 1.101562-11.5625 2.171875-17.269532 1.125-6.039062 2.605468-12.007812 4.425781-17.878906 1.734375-5.734375 3.820313-11.355468 6.246094-16.832031 1.214843-2.867187 2.519531-5.730469 3.90625-8.507813l3.90625-7.894531c.347656-.78125.78125-1.476562 1.128906-2.171875 3-5.648437 6.453125-11.046875 10.324219-16.140625 7.339844-9.496093 15.660156-18.191406 24.820312-25.945312 8.554688-7.394531 12.933594-18.523438 11.714844-29.765625-2.433594-18.039063-17.988281-31.394532-36.1875-31.066406l1.648438-17.355469c4.601562 0 126.871093-3.300781 130.171874 0zm0 0" fill="#4197e7" data-original="#e75841" class=""></path><path xmlns="http://www.w3.org/2000/svg" d="m61.246094 355.796875v26.035156c0 4.789063-3.886719 8.675781-8.679688 8.675781h-17.355468c-4.792969 0-8.675782-3.886718-8.675782-8.675781v-26.035156zm0 0" fill="#636c77" data-original="#636c77" class=""></path><path xmlns="http://www.w3.org/2000/svg" d="m356.296875 364.472656v34.714844h-34.710937c-4.792969 0-8.679688-3.886719-8.679688-8.679688v-17.355468c0-4.792969 3.886719-8.679688 8.679688-8.679688zm0 0" fill="#636c77" data-original="#636c77" class=""></path><path xmlns="http://www.w3.org/2000/svg" d="m408.363281 355.796875h34.710938c4.792969 0 8.679687 3.886719 8.679687 8.675781v34.714844c0 4.792969-3.886718 8.675781-8.679687 8.675781h-34.710938zm0 0" fill="#636c77" data-original="#636c77" class=""></path><path xmlns="http://www.w3.org/2000/svg" d="m356.296875 347.117188h52.066406c4.792969 0 8.679688 3.886718 8.679688 8.679687v52.066406c0 4.792969-3.886719 8.679688-8.679688 8.679688h-52.066406c-4.792969 0-8.679687-3.886719-8.679687-8.679688v-52.066406c0-4.792969 3.886718-8.679687 8.679687-8.679687zm0 0" fill="#768089" data-original="#768089"></path><path xmlns="http://www.w3.org/2000/svg" d="m139.347656 52.066406-17.355468-34.710937h57.359374c7.253907.011719 13.746094 4.5 16.316407 11.28125l5.554687 14.753906v.085937l16.226563 43.304688h-69.425781zm0 0" fill="#c9cfd6" data-original="#c9cfd6" class=""></path><path xmlns="http://www.w3.org/2000/svg" d="m347.183594 98.234375-11.628906 34.710937c-1.160157 3.519532-4.449219 5.898438-8.15625 5.902344h-162.015626l-5.730468-5.726562-2.949219-2.953125-3.558594-3.558594c-.238281-.253906-.5-.484375-.78125-.691406-3.167969-2.847657-7.28125-4.425781-11.539062-4.425781h-117.589844c-3.296875.023437-6.324219-1.828126-7.808594-4.773438l-13.972656-28.117188c-.617187-1.207031-.945313-2.546874-.953125-3.90625v-23.949218c0-4.792969 3.886719-8.679688 8.679688-8.679688h138.84375c5.460937.019532 10.597656 2.585938 13.886718 6.945313l15.621094 20.824219c3.289062 4.359374 8.425781 6.925781 13.882812 6.945312h147.527344c2.789063.019531 5.402344 1.367188 7.03125 3.632812 1.628906 2.261719 2.078125 5.167969 1.210938 7.820313zm0 0" fill="#e3e7ea" data-original="#e3e7ea" class=""></path><path xmlns="http://www.w3.org/2000/svg" d="m200.09375 138.847656v34.710938c0 4.792968-3.886719 8.679687-8.679688 8.679687h-11.714843c4.792969 0 8.679687-3.886719 8.679687-8.679687v-34.710938zm0 0" fill="#545e68" data-original="#545e68"></path><path xmlns="http://www.w3.org/2000/svg" d="m486.464844 104.136719h-17.355469c5.441406-.007813 10.566406-2.570313 13.839844-6.917969 3.273437-4.347656 4.320312-9.980469 2.824219-15.210938l-7.464844-26.035156c-2.105469-7.453125-8.914063-12.59375-16.660156-12.582031h17.355468c7.746094-.011719 14.554688 5.128906 16.660156 12.582031l7.464844 26.035156c1.496094 5.230469.449219 10.863282-2.824218 15.210938-3.273438 4.347656-8.394532 6.910156-13.839844 6.917969zm0 0" fill="#2f61dd" data-original="#dd3f2f" class=""></path><path xmlns="http://www.w3.org/2000/svg" d="m460.433594 43.390625h-17.359375c-4.789063 0-8.675781-3.886719-8.675781-8.679687v-8.675782c.027343-1.75-.519532-3.457031-1.5625-4.859375l7.203124-3.300781c2.667969-.996094 5.65625-.621094 7.996094 1.007812 2.339844 1.628907 3.726563 4.300782 3.71875 7.152344v8.675782c0 4.792968 3.886719 8.679687 8.679688 8.679687zm0 0" fill="#2f61dd" data-original="#dd3f2f" class=""></path><path xmlns="http://www.w3.org/2000/svg" d="m165.382812 138.847656-53.71875 101.53125c-8.023437 15.035156-14.144531 31.007813-18.222656 47.554688-4.09375 16.496094-6.160156 33.425781-6.160156 50.421875.007812 9.601562-7.753906 17.402343-17.359375 17.441406h-17.355469c9.605469-.039063 17.367188-7.839844 17.355469-17.441406.003906-16.996094 2.070313-33.925781 6.164063-50.421875 4.078124-16.546875 10.199218-32.519532 18.222656-47.554688l50.738281-95.898437c1.980469-3.75 3.65625-7.65625 5.007813-11.671875l2.308593-6.890625c.28125.207031.542969.4375.78125.691406zm0 0" fill="#2f61dd" data-original="#dd3f2f" class=""></path><path xmlns="http://www.w3.org/2000/svg" d="m347.183594 98.234375-1.996094 5.902344-9.632812 28.808593c-1.160157 3.519532-4.449219 5.898438-8.15625 5.902344h-17.355469c3.707031-.003906 6.992187-2.382812 8.15625-5.902344l9.632812-28.808593 1.996094-5.902344c.867187-2.652344.417969-5.558594-1.210937-7.820313-1.632813-2.265624-4.242188-3.613281-7.03125-3.632812h17.355468c2.789063.019531 5.402344 1.367188 7.03125 3.632812 1.628906 2.261719 2.078125 5.167969 1.210938 7.820313zm0 0" fill="#c9cfd6" data-original="#c9cfd6" class=""></path><path xmlns="http://www.w3.org/2000/svg" d="m43.890625 95.457031h-8.679687c-4.792969 0-8.675782-3.886719-8.675782-8.675781 0-4.792969 3.882813-8.679688 8.675782-8.679688h8.679687c4.792969 0 8.675781 3.886719 8.675781 8.679688 0 4.789062-3.882812 8.675781-8.675781 8.675781zm0 0" fill="#4197e7" data-original="#e75841" class=""></path><path xmlns="http://www.w3.org/2000/svg" d="m130.667969 95.457031h-52.066407c-4.792968 0-8.679687-3.886719-8.679687-8.675781 0-4.792969 3.886719-8.679688 8.679687-8.679688h52.066407c4.792969 0 8.679687 3.886719 8.679687 8.679688 0 4.789062-3.886718 8.675781-8.679687 8.675781zm0 0" fill="#4197e7" data-original="#e75841" class=""></path><g xmlns="http://www.w3.org/2000/svg" fill="#dd3f2f"><path d="m43.890625 321.085938c0 4.792968-3.886719 8.675781-8.679687 8.675781h-34.710938v-17.355469h34.710938c4.792968 0 8.679687 3.886719 8.679687 8.679688zm0 0" fill="#2f61dd" data-original="#dd3f2f" class=""></path><path d="m52.566406 286.371094c0 4.792968-3.882812 8.679687-8.675781 8.679687h-41.914063c-.292968.015625-.585937-.015625-.871093-.085937.378906-5.796875 1.101562-11.5625 2.171875-17.269532h40.613281c4.792969 0 8.675781 3.882813 8.675781 8.675782zm0 0" fill="#2f61dd" data-original="#dd3f2f" class=""></path><path d="m61.246094 251.660156c0 4.792969-3.886719 8.679688-8.679688 8.679688h-42.085937c-.949219.003906-1.894531-.175782-2.777344-.523438 1.734375-5.734375 3.820313-11.355468 6.246094-16.832031h38.617187c4.792969 0 8.679688 3.882813 8.679688 8.675781zm0 0" fill="#2f61dd" data-original="#dd3f2f" class=""></path><path d="m78.601562 216.949219c0 4.792969-3.886718 8.675781-8.679687 8.675781h-42.695313c-1.527343 0-3.027343-.417969-4.335937-1.214844 3-5.648437 6.453125-11.046875 10.324219-16.140625h36.707031c4.792969 0 8.679687 3.886719 8.679687 8.679688zm0 0" fill="#2f61dd" data-original="#dd3f2f" class=""></path></g><path xmlns="http://www.w3.org/2000/svg" d="m312.90625 373.152344v17.355468h-43.390625c-23.960937 0-43.386719-19.425781-43.386719-43.390624v-43.386719c0-19.171875-15.542968-34.714844-34.714844-34.714844-19.167968 0-34.710937 15.542969-34.710937 34.714844v147.523437c0 33.550782-27.195313 60.746094-60.746094 60.746094-33.546875 0-60.746093-27.195312-60.746093-60.746094v-60.746094h17.355468v60.746094c0 23.964844 19.425782 43.390625 43.390625 43.390625 23.964844 0 43.390625-19.425781 43.390625-43.390625v-147.523437c0-28.757813 23.3125-52.070313 52.066406-52.070313 28.757813 0 52.070313 23.3125 52.070313 52.070313v43.386719c.042969 14.363281 11.671875 25.992187 26.03125 26.035156zm0 0" fill="#424852" data-original="#424852" class=""></path></g></svg>