<svg xmlns="http://www.w3.org/2000/svg" version="1.1" xmlns:xlink="http://www.w3.org/1999/xlink" xmlns:svgjs="http://svgjs.com/svgjs" width="512" height="512" x="0" y="0" viewBox="0 0 512 512" style="enable-background:new 0 0 512 512" xml:space="preserve" class=""><g><path xmlns="http://www.w3.org/2000/svg" d="m477.727 154.044c-3.078 0-5.989-1.853-7.188-4.89l-10.798-27.34c-1.173-2.97-3.993-4.888-7.186-4.888h-30.696c-4.268 0-7.726-3.459-7.726-7.726s3.459-7.726 7.726-7.726h30.696c9.578 0 18.04 5.757 21.558 14.665l12.486 31.629c1.567 3.969-2.067 4.168-6.036 5.735-.931.367-1.891.541-2.836.541z" fill="#d8d8d8" data-original="#d8d8d8" class=""></path><path xmlns="http://www.w3.org/2000/svg" d="m34.273 154.044c-.945 0-1.904-.174-2.836-.542-3.969-1.567-8.408.229-6.841-3.739l13.291-33.625c3.518-8.908 11.98-14.665 21.558-14.665h30.696c4.267 0 7.726 3.459 7.726 7.726s-3.459 7.726-7.726 7.726h-30.696c-3.193 0-6.013 1.919-7.186 4.888l-10.798 27.34c-1.199 3.038-4.11 4.891-7.188 4.891z" fill="#d8d8d8" data-original="#d8d8d8" class=""></path><path xmlns="http://www.w3.org/2000/svg" d="m512 177.191c0-17.069-13.837-30.905-30.905-30.905h-20.779c-8.573 0-16.25-5.309-19.277-13.329l-5.514-14.612c-6.053-16.042-21.408-26.659-38.554-26.659h-281.942c-17.146 0-32.5 10.617-38.554 26.659l-5.514 14.612c-3.027 8.021-10.704 13.329-19.277 13.329h-20.779c-17.068 0-30.905 13.837-30.905 30.905v157.618c0 17.069 13.837 30.905 30.905 30.905h20.779c8.573 0 16.25 5.309 19.277 13.329l5.514 14.612c6.053 16.042 21.408 26.659 38.554 26.659h281.942c17.146 0 32.5-10.617 38.554-26.659l5.514-14.612c3.027-8.021 10.704-13.329 19.277-13.329h20.779c17.069 0 30.905-13.837 30.905-30.905z" fill="#ca68ff" data-original="#ac95f4" class=""></path><path xmlns="http://www.w3.org/2000/svg" d="m512 177.191v157.618c0 17.07-13.835 30.905-30.905 30.905h-20.779c-8.571 0-16.246 5.305-19.275 13.331l-5.511 14.608c-6.057 16.04-21.417 26.661-38.56 26.661h-30.905c17.142 0 32.502-10.621 38.56-26.661l5.511-14.608c3.029-8.025 10.704-13.331 19.275-13.331h20.779c17.07 0 30.905-13.835 30.905-30.905v-157.618c0-17.07-13.835-30.905-30.905-30.905h-20.78c-8.571 0-16.246-5.305-19.275-13.331l-5.511-14.608c-6.057-16.04-21.418-26.661-38.56-26.661h30.905c17.142 0 32.502 10.621 38.56 26.661l5.511 14.608c3.029 8.025 10.704 13.331 19.275 13.331h20.779c17.071 0 30.906 13.835 30.906 30.905z" fill="#6350af" data-original="#7f6bd1" class=""></path><path xmlns="http://www.w3.org/2000/svg" d="m381.167 161.738c11.379 0 20.604 9.225 20.604 20.604v147.316c0 11.379-9.225 20.604-20.604 20.604h-250.334c-11.379 0-20.604-9.225-20.604-20.604v-147.316c0-11.379 9.225-20.604 20.604-20.604z" fill="#ffffff" data-original="#ffffff" class=""></path><path xmlns="http://www.w3.org/2000/svg" d="m401.771 182.342v147.316c0 11.383-9.22 20.604-20.604 20.604h-30.905c11.384 0 20.604-9.22 20.604-20.604v-147.316c0-11.383-9.22-20.604-20.604-20.604h30.905c11.384 0 20.604 9.221 20.604 20.604z" fill="#d8d8d8" data-original="#d8d8d8" class=""></path><path xmlns="http://www.w3.org/2000/svg" d="m78.294 241.062h-15.453v-15.452c0-4.268-3.459-7.726-7.726-7.726s-7.726 3.459-7.726 7.726v15.453h-15.453c-4.267 0-7.726 3.459-7.726 7.726 0 4.268 3.459 7.726 7.726 7.726h15.453v15.453c0 4.268 3.459 7.726 7.726 7.726s7.726-3.459 7.726-7.726v-15.453h15.453c4.267 0 7.726-3.459 7.726-7.726 0-4.268-3.459-7.727-7.726-7.727z" fill="#5c666d" data-original="#5c666d" class=""></path><path xmlns="http://www.w3.org/2000/svg" d="m461.006 233.851h-8.241c-4.268 0-7.726-3.459-7.726-7.726v-8.241c0-4.268 3.459-7.726 7.726-7.726h8.241c4.268 0 7.726 3.459 7.726 7.726v8.241c0 4.267-3.458 7.726-7.726 7.726z" fill="#5c666d" data-original="#5c666d" class=""></path><path xmlns="http://www.w3.org/2000/svg" d="m461.006 287.421h-8.241c-4.268 0-7.726-3.459-7.726-7.726v-8.241c0-4.268 3.459-7.726 7.726-7.726h8.241c4.268 0 7.726 3.459 7.726 7.726v8.241c0 4.267-3.458 7.726-7.726 7.726z" fill="#5c666d" data-original="#5c666d" class=""></path><path xmlns="http://www.w3.org/2000/svg" d="m487.791 261.666h-8.241c-4.268 0-7.726-3.459-7.726-7.726v-8.241c0-4.268 3.459-7.726 7.726-7.726h8.241c4.268 0 7.726 3.459 7.726 7.726v8.241c0 4.267-3.459 7.726-7.726 7.726z" fill="#5c666d" data-original="#5c666d" class=""></path><path xmlns="http://www.w3.org/2000/svg" d="m495.517 245.698v8.241c0 4.265-3.461 7.726-7.726 7.726h-6.696v-23.694h6.696c4.265.001 7.726 3.462 7.726 7.727z" fill="#3b454c" data-original="#3b454c" class=""></path><path xmlns="http://www.w3.org/2000/svg" d="m434.221 260.636h-8.241c-4.268 0-7.726-3.459-7.726-7.726v-8.241c0-4.268 3.459-7.726 7.726-7.726h8.241c4.268 0 7.726 3.459 7.726 7.726v8.241c.001 4.267-3.458 7.726-7.726 7.726z" fill="#5c666d" data-original="#5c666d" class=""></path><path xmlns="http://www.w3.org/2000/svg" d="m349.231 271.453h-186.462c-5.69 0-10.302-4.612-10.302-10.302v-10.302c0-5.69 4.612-10.302 10.302-10.302h186.463c5.69 0 10.302 4.612 10.302 10.302v10.302c-.001 5.689-4.613 10.302-10.303 10.302z" fill="#c5e6ff" data-original="#c5e6ff" class=""></path><path xmlns="http://www.w3.org/2000/svg" d="m313.175 271.453h-150.406c-5.69 0-10.302-4.612-10.302-10.302v-10.302c0-5.69 4.612-10.302 10.302-10.302h150.406z" fill="#82dba6" data-original="#82dba6" class=""></path><g xmlns="http://www.w3.org/2000/svg" fill="#7f6bd1"><path d="m283.3 134.439h-54.6c-4.267 0-7.726-3.459-7.726-7.726s3.459-7.726 7.726-7.726h54.6c4.268 0 7.726 3.459 7.726 7.726s-3.459 7.726-7.726 7.726z" fill="#6350af" data-original="#7f6bd1" class=""></path><path d="m316.266 134.439h-2.06c-4.268 0-7.726-3.459-7.726-7.726s3.459-7.726 7.726-7.726h2.06c4.268 0 7.726 3.459 7.726 7.726s-3.459 7.726-7.726 7.726z" fill="#6350af" data-original="#7f6bd1" class=""></path><path d="m197.795 134.439h-2.06c-4.267 0-7.726-3.459-7.726-7.726s3.459-7.726 7.726-7.726h2.06c4.267 0 7.726 3.459 7.726 7.726s-3.459 7.726-7.726 7.726z" fill="#6350af" data-original="#7f6bd1" class=""></path><path d="m283.3 391.984h-54.6c-4.267 0-7.726-3.459-7.726-7.726s3.459-7.726 7.726-7.726h54.6c4.268 0 7.726 3.459 7.726 7.726s-3.459 7.726-7.726 7.726z" fill="#6350af" data-original="#7f6bd1" class=""></path></g></g></svg>