<svg xmlns="http://www.w3.org/2000/svg" version="1.1" xmlns:xlink="http://www.w3.org/1999/xlink" xmlns:svgjs="http://svgjs.com/svgjs" width="512" height="512" x="0" y="0" viewBox="0 0 512 512.01073" style="enable-background:new 0 0 512 512" xml:space="preserve" class=""><g><path xmlns="http://www.w3.org/2000/svg" d="m503.371094 355.796875-.710938 56.207031c-4.789062 42.175782-32.863281 78.082032-72.636718 92.90625-39.773438 14.824219-84.5 6.050782-115.726563-22.703125-3.257813-3.097656-7.558594-4.851562-12.054687-4.917969h-101.027344c-4.527344.058594-8.867188 1.820313-12.148438 4.9375-33.671875 30.980469-82.726562 38.539063-124.15625 19.125-41.433594-19.414062-67.023437-61.941406-64.765625-107.640624l-.0937498-37.914063zm0 0" fill="#a8afba" data-original="#a8afba"></path><path xmlns="http://www.w3.org/2000/svg" d="m502.679688 368.640625c-4.800782 42.175781-32.882813 78.085937-72.660157 92.90625-39.777343 14.824219-84.507812 6.050781-115.738281-22.703125-3.238281-3.136719-7.558594-4.910156-12.0625-4.945312h-101.011719c-4.5.078124-8.804687 1.84375-12.0625 4.945312-33.691406 30.953125-82.738281 38.492188-124.171875 19.089844-41.429687-19.402344-67.042968-61.90625-64.835937-107.605469 4.042969-60.875 54.933593-107.992187 115.9375-107.34375h274.484375c32.15625.007813 62.78125 13.734375 84.191406 37.726563 21.40625 23.996093 31.566406 55.980468 27.929688 87.929687zm0 0" fill="#c9cfd6" data-original="#c9cfd6"></path><path xmlns="http://www.w3.org/2000/svg" d="m468.660156 355.796875c0 43.132813-34.964844 78.101563-78.101562 78.101563-43.132813 0-78.101563-34.96875-78.101563-78.101563s34.96875-78.101563 78.101563-78.101563c43.136718 0 78.101562 34.96875 78.101562 78.101563zm0 0" fill="#636c77" data-original="#636c77"></path><path xmlns="http://www.w3.org/2000/svg" d="m173.609375 355.796875c0 33.546875-27.195313 60.746094-60.746094 60.746094-33.546875 0-60.746093-27.199219-60.746093-60.746094 0-33.550781 27.199218-60.746094 60.746093-60.746094 33.550781 0 60.746094 27.195313 60.746094 60.746094zm0 0" fill="#a8afba" data-original="#a8afba"></path><path xmlns="http://www.w3.org/2000/svg" d="m381.882812 8.679688h86.777344c4.792969 0 8.679688 3.882812 8.679688 8.675781v34.710937h-104.136719v-34.710937c0-4.792969 3.886719-8.675781 8.679687-8.675781zm0 0" fill="#365972" data-original="#365972"></path><path xmlns="http://www.w3.org/2000/svg" d="m364.523438 43.390625h121.492187c9.585937 0 17.355469 7.769531 17.355469 17.355469v52.066406c0 9.585938-7.769532 17.355469-17.355469 17.355469h-121.492187c-9.582032 0-17.355469-7.769531-17.355469-17.355469v-52.066406c0-9.585938 7.773437-17.355469 17.355469-17.355469zm0 0" fill="#457392" data-original="#457392"></path><path xmlns="http://www.w3.org/2000/svg" d="m503.371094 355.96875-.691406 56.0625c-6.078126 51.796875-46.742188 92.746094-98.496094 99.1875-7.316406.878906-14.699219 1.023438-22.042969.433594 1.5625-.085938 3.125-.261719 4.6875-.433594 49.4375-6.140625 89.0625-43.863281 97.625-92.941406 10.003906-14.828125 16.257813-31.859375 18.226563-49.636719.441406-4.210937.671874-8.4375.691406-12.671875zm0 0" fill="#969eaa" data-original="#969eaa"></path><path xmlns="http://www.w3.org/2000/svg" d="m477.339844 17.355469v26.035156h-17.355469v-26.035156c0-4.792969-3.886719-8.675781-8.679687-8.675781h17.355468c4.792969 0 8.679688 3.882812 8.679688 8.675781zm0 0" fill="#2c4e63" data-original="#2c4e63"></path><path xmlns="http://www.w3.org/2000/svg" d="m503.371094 60.746094v52.066406c-.027344 9.574219-7.78125 17.328125-17.355469 17.355469h-17.355469c9.574219-.027344 17.328125-7.78125 17.355469-17.355469v-52.066406c0-9.585938-7.769531-17.355469-17.355469-17.355469h17.355469c9.574219.027344 17.328125 7.78125 17.355469 17.355469zm0 0" fill="#365972" data-original="#365972"></path><path xmlns="http://www.w3.org/2000/svg" d="m503.371094 355.796875v.171875c-.019532 4.234375-.25 8.460938-.691406 12.671875-1.96875 17.777344-8.222657 34.808594-18.226563 49.636719-18.273437 27.410156-47.578125 45.5-80.269531 49.550781-7.316406.878906-14.699219 1.027344-22.042969.433594 1.5625-.085938 3.125-.257813 4.6875-.433594 51.753906-6.441406 92.417969-47.390625 98.496094-99.1875.441406-4.210937.671875-8.4375.691406-12.671875v-.171875c-.027344-62.292969-50.519531-112.785156-112.8125-112.8125h17.355469c62.292968.027344 112.785156 50.519531 112.8125 112.8125zm0 0" fill="#b9c0c6" data-original="#b9c0c6"></path><path xmlns="http://www.w3.org/2000/svg" d="m364.523438 364.472656h-17.355469c-4.792969 0-8.675781-3.882812-8.675781-8.675781s3.882812-8.679687 8.675781-8.679687h17.355469c4.792968 0 8.679687 3.886718 8.679687 8.679687s-3.886719 8.675781-8.679687 8.675781zm0 0" fill="#b3de80" data-original="#b3de80"></path><path xmlns="http://www.w3.org/2000/svg" d="m407.914062 329.761719h-17.355468c-4.792969 0-8.675782-3.882813-8.675782-8.675781 0-4.792969 3.882813-8.679688 8.675782-8.679688h17.355468c4.792969 0 8.679688 3.886719 8.679688 8.679688 0 4.792968-3.886719 8.675781-8.679688 8.675781zm0 0" fill="#4fbfe7" data-original="#4fbfe7"></path><path xmlns="http://www.w3.org/2000/svg" d="m390.558594 399.1875h-17.355469c-4.792969 0-8.679687-3.886719-8.679687-8.679688 0-4.792968 3.886718-8.675781 8.679687-8.675781h17.355469c4.792968 0 8.679687 3.882813 8.679687 8.675781 0 4.792969-3.886719 8.679688-8.679687 8.679688zm0 0" fill="#fccc56" data-original="#fccc56"></path><path xmlns="http://www.w3.org/2000/svg" d="m433.949219 364.472656h-17.355469c-4.792969 0-8.679688-3.882812-8.679688-8.675781s3.886719-8.679687 8.679688-8.679687h17.355469c4.792969 0 8.675781 3.886718 8.675781 8.679687s-3.882812 8.675781-8.675781 8.675781zm0 0" fill="#f66c81" data-original="#f66c81"></path><g xmlns="http://www.w3.org/2000/svg" fill="#636c77"><path d="m251.710938 390.507812c-3.199219-.003906-6.136719-1.765624-7.644532-4.585937-1.507812-2.824219-1.34375-6.246094.433594-8.90625l17.355469-26.035156c2.660156-3.988281 8.050781-5.0625 12.035156-2.402344 3.988281 2.660156 5.066406 8.046875 2.40625 12.035156l-17.355469 26.035157c-1.613281 2.414062-4.324218 3.863281-7.230468 3.859374zm0 0" fill="#636c77" data-original="#636c77"></path><path d="m208.320312 390.507812c-3.199218-.003906-6.136718-1.765624-7.644531-4.585937-1.507812-2.824219-1.339843-6.246094.433594-8.90625l17.355469-26.035156c2.660156-3.988281 8.050781-5.0625 12.039062-2.402344 3.984375 2.660156 5.0625 8.046875 2.402344 12.035156l-17.355469 26.035157c-1.613281 2.414062-4.324219 3.863281-7.230469 3.859374zm0 0" fill="#636c77" data-original="#636c77"></path><path d="m138.898438 347.117188h-17.355469v-17.355469c0-4.792969-3.886719-8.675781-8.679688-8.675781s-8.675781 3.882812-8.675781 8.675781v17.355469h-17.355469c-4.792969 0-8.679687 3.886718-8.679687 8.679687s3.886718 8.675781 8.679687 8.675781h17.355469v17.359375c0 4.792969 3.882812 8.675781 8.675781 8.675781s8.679688-3.882812 8.679688-8.675781v-17.359375h17.355469c4.792968 0 8.675781-3.882812 8.675781-8.675781s-3.882813-8.679687-8.675781-8.679687zm0 0" fill="#636c77" data-original="#636c77"></path></g><path xmlns="http://www.w3.org/2000/svg" d="m199.644531 295.050781h-8.679687c-4.792969 0-8.675782-3.886719-8.675782-8.679687 0-4.789063 3.882813-8.675782 8.675782-8.675782h8.679687c4.792969 0 8.675781 3.886719 8.675781 8.675782 0 4.792968-3.882812 8.679687-8.675781 8.679687zm0 0" fill="#e3e7ea" data-original="#e3e7ea"></path><path xmlns="http://www.w3.org/2000/svg" d="m295.101562 295.050781h-60.746093c-4.792969 0-8.679688-3.886719-8.679688-8.679687 0-4.789063 3.886719-8.675782 8.679688-8.675782h60.746093c4.792969 0 8.679688 3.886719 8.679688 8.675782 0 4.792968-3.886719 8.679687-8.679688 8.679687zm0 0" fill="#e3e7ea" data-original="#e3e7ea"></path><path xmlns="http://www.w3.org/2000/svg" d="m459.984375 86.78125h-69.425781c-4.792969 0-8.675782-3.886719-8.675782-8.679688 0-4.792968 3.882813-8.679687 8.675782-8.679687h69.425781c4.792969 0 8.675781 3.886719 8.675781 8.679687 0 4.792969-3.882812 8.679688-8.675781 8.679688zm0 0" fill="#5e8ea9" data-original="#5e8ea9"></path><path xmlns="http://www.w3.org/2000/svg" d="m433.949219 130.167969v56.410156c0 16.773437-13.597657 30.371094-30.375 30.371094-16.773438 0-30.371094-13.597657-30.371094-30.371094v-4.339844c0-4.792969-3.886719-8.679687-8.679687-8.679687-4.792969 0-8.675782 3.886718-8.675782 8.679687v4.339844c0 16.773437-13.597656 30.371094-30.375 30.371094-16.773437 0-30.371094-13.597657-30.371094-30.371094v-151.867187c0-9.585938-7.769531-17.355469-17.355468-17.355469-9.585938 0-17.355469 7.769531-17.355469 17.355469v208.273437h-17.355469v-208.273437c0-19.167969 15.539063-34.710938 34.710938-34.710938s34.710937 15.542969 34.710937 34.710938v151.867187c0 7.1875 5.828125 13.015625 13.015625 13.015625 7.191406 0 13.019532-5.828125 13.019532-13.015625v-4.339844c0-14.378906 11.65625-26.035156 26.03125-26.035156 14.378906 0 26.035156 11.65625 26.035156 26.035156v4.339844c0 7.1875 5.828125 13.015625 13.015625 13.015625 7.191406 0 13.019531-5.828125 13.019531-13.015625v-56.410156zm0 0" fill="#424852" data-original="#424852" class=""></path></g></svg>