<svg xmlns="http://www.w3.org/2000/svg" version="1.1" xmlns:xlink="http://www.w3.org/1999/xlink" xmlns:svgjs="http://svgjs.com/svgjs" width="512" height="512" x="0" y="0" viewBox="0 0 512 512.23021" style="enable-background:new 0 0 512 512" xml:space="preserve" class=""><g><path xmlns="http://www.w3.org/2000/svg" d="m277.808594 399.417969v34.710937c-.027344 9.574219-7.78125 17.328125-17.355469 17.355469h-17.355469c-9.574218-.027344-17.328125-7.78125-17.355468-17.355469v-34.710937zm0 0" fill="#c9cfd6" data-original="#c9cfd6" class=""></path><path xmlns="http://www.w3.org/2000/svg" d="m353.855469 334.851562 28.089843 82.617188c-43.015624-7.070312-86.585937-10.207031-130.167968-9.375-43.585938-.832031-87.15625 2.304688-130.171875 9.375l28.09375-82.617188zm0 0" fill="#d84452" data-original="#d84452"></path><path xmlns="http://www.w3.org/2000/svg" d="m503.4375 123.890625v182.933594c-.015625 26.726562-5.632812 53.15625-16.488281 77.578125l-47.902344 107.867187c-3.1875 7.175781-10.457031 11.648438-18.296875 11.265625-7.839844-.382812-14.636719-5.550781-17.109375-13l-24.386719-73.066406-22.214844-66.824219-5.292968-15.792969c-8.816406 5.832032-18.136719 10.859376-27.855469 15.015626-14.722656 6.34375-30.214844 10.71875-46.082031 13.015624.300781 2.5-.414063 5.011719-1.976563 6.984376-1.566406 1.972656-3.851562 3.238281-6.351562 3.515624h-35.40625c-2.503907-.277343-4.789063-1.542968-6.351563-3.515624-1.566406-1.972657-2.277344-4.484376-1.980468-6.984376-15.835938-2.296874-31.300782-6.671874-45.992188-13.015624h-.085938c-9.71875-4.15625-19.042968-9.183594-27.859374-15.015626l-5.292969 15.792969-22.214844 66.824219-24.386719 73.066406c-2.46875 7.449219-9.265625 12.617188-17.105468 13-7.839844.382813-15.113282-4.089844-18.300782-11.265625l-47.902344-107.867187c-10.851562-24.421875-16.46875-50.851563-16.488281-77.578125v-182.933594c-.0390622-16.449219 11.492188-30.664063 27.597657-34.015625l57.015624-11.976562 20.914063-4.425782c4.601563-6.203125 9.648437-12.058594 15.097656-17.53125l.085938-.085937c34.21875-35.679688 81.515625-55.855469 130.953125-55.855469s96.730468 20.175781 130.949218 55.855469c5.480469 5.5 10.554688 11.386719 15.1875 17.617187l20.914063 4.425782 57.011719 11.976562c16.109375 3.351562 27.636718 17.566406 27.597656 34.015625zm0 0" fill="#ea5463" data-original="#ea5463" class=""></path><path xmlns="http://www.w3.org/2000/svg" d="m227.148438 357.804688 17.683593-32.027344c1.230469-2.71875 3.9375-4.460938 6.917969-4.460938s5.6875 1.742188 6.917969 4.460938l17.710937 32.027344c3.679688 6.65625-.277344 15.621093-6.941406 15.621093h-35.371094c-6.640625-.042969-10.597656-8.964843-6.917968-15.621093zm0 0" fill="#e3e7ea" data-original="#e3e7ea" class=""></path><path xmlns="http://www.w3.org/2000/svg" d="m121.605469 173.789062c0 23.964844-19.425781 43.390626-43.386719 43.390626-23.964844 0-43.390625-19.425782-43.390625-43.390626 0-23.964843 19.425781-43.390624 43.390625-43.390624 23.960938 0 43.386719 19.425781 43.386719 43.390624zm0 0" fill="#c9cfd6" data-original="#c9cfd6" class=""></path><path xmlns="http://www.w3.org/2000/svg" d="m338.554688 22.097656v143.015625c0 47.925781-38.851563 86.777344-86.777344 86.777344-47.929688 0-86.78125-38.851563-86.78125-86.777344v-143.015625c22.792968-12.285156 47.933594-19.59375 73.761718-21.433594h.175782c4.25-.261718 8.589844-.433593 12.84375-.433593 30.292968-.023438 60.113281 7.492187 86.777344 21.867187zm0 0" fill="#e3e7ea" data-original="#e3e7ea" class=""></path><path xmlns="http://www.w3.org/2000/svg" d="m217.0625 87.011719h69.425781c9.585938 0 17.355469 7.769531 17.355469 17.355469v60.746093c0 9.582031-7.769531 17.355469-17.355469 17.355469h-69.425781c-9.582031 0-17.355469-7.773438-17.355469-17.355469v-60.746093c0-9.585938 7.773438-17.355469 17.355469-17.355469zm0 0" fill="#66d3f0" data-original="#66d3f0"></path><path xmlns="http://www.w3.org/2000/svg" d="m277.808594 408.355469v25.773437c-.027344 9.574219-7.78125 17.328125-17.355469 17.355469h-17.355469c9.574219-.027344 17.328125-7.78125 17.355469-17.355469v-25.773437zm0 0" fill="#a8afba" data-original="#a8afba"></path><path xmlns="http://www.w3.org/2000/svg" d="m121.605469 173.789062c0 23.964844-19.425781 43.390626-43.386719 43.390626-2.886719.019531-5.769531-.269532-8.59375-.867188 20.222656-4.105469 34.757812-21.886719 34.757812-42.523438 0-20.632812-14.535156-38.414062-34.757812-42.523437 2.824219-.597656 5.707031-.886719 8.59375-.867187 23.960938 0 43.386719 19.425781 43.386719 43.390624zm0 0" fill="#a8afba" data-original="#a8afba"></path><path xmlns="http://www.w3.org/2000/svg" d="m338.554688 22.097656v143.015625c0 47.925781-38.851563 86.777344-86.777344 86.777344-2.863282 0-5.730469-.171875-8.503906-.433594 44.273437-4.539062 77.9375-41.839843 77.925781-86.34375v-151.171875c5.945312 2.367188 11.742187 5.089844 17.355469 8.15625zm0 0" fill="#c9cfd6" data-original="#c9cfd6" class=""></path><g xmlns="http://www.w3.org/2000/svg" fill="#d84452"><path d="m503.4375 123.890625v182.933594c-.015625 26.726562-5.632812 53.15625-16.488281 77.578125l-47.46875 106.886718c-2.527344 6.117188-7.910157 10.597657-14.386719 11.96875-5.945312 1.078126-12.046875-.746093-16.417969-4.914062 1.851563-1.699219 3.328125-3.769531 4.335938-6.074219l47.902343-107.867187c10.855469-24.421875 16.472657-50.851563 16.488282-77.578125v-182.933594c.042968-16.449219-11.488282-30.664063-27.59375-34.015625l-71.785156-15.109375c-3.945313-.871094-7.464844-3.082031-9.960938-6.257813-8.695312-10.800781-18.597656-20.578124-29.507812-29.140624v-17.269532c23.238281 12.679688 43.480468 30.199219 59.359374 51.375l77.925782 16.402344c16.109375 3.351562 27.636718 17.566406 27.597656 34.015625zm0 0" fill="#d84452" data-original="#d84452"></path><path d="m179.664062 349.867188c-9.71875-4.15625-19.042968-9.183594-27.859374-15.015626l-5.292969 15.792969c-7.753907-5.117187-15.121094-10.800781-22.042969-17.007812-2.308594-2.078125-3.335938-5.226563-2.691406-8.265625.644531-3.039063 2.863281-5.503906 5.816406-6.464844 2.953125-.964844 6.195312-.277344 8.503906 1.800781 12.378906 11.105469 26.289063 20.371094 41.308594 27.507813.851562.398437 1.617188.960937 2.257812 1.652344zm0 0" fill="#d84452" data-original="#d84452"></path><path d="m379.082031 333.636719c-6.917969 6.207031-14.285156 11.890625-22.042969 17.007812l-5.292968-15.792969c-8.816406 5.832032-18.136719 10.859376-27.855469 15.015626.636719-.691407 1.402344-1.253907 2.253906-1.652344 15.019531-7.136719 28.933594-16.402344 41.308594-27.507813 2.308594-2.078125 5.550781-2.765625 8.507813-1.800781 2.953124.960938 5.167968 3.425781 5.8125 6.464844.644531 3.039062-.382813 6.1875-2.691407 8.265625zm0 0" fill="#d84452" data-original="#d84452"></path></g><path xmlns="http://www.w3.org/2000/svg" d="m121.605469 269.246094h-17.355469v-17.355469c0-4.792969-3.882812-8.675781-8.675781-8.675781s-8.679688 3.882812-8.679688 8.675781v17.355469h-17.355469c-4.792968 0-8.679687 3.886718-8.679687 8.679687s3.886719 8.675781 8.679687 8.675781h17.355469v17.359376c0 4.789062 3.886719 8.675781 8.679688 8.675781s8.675781-3.886719 8.675781-8.675781v-17.359376h17.355469c4.792969 0 8.679687-3.882812 8.679687-8.675781s-3.886718-8.679687-8.679687-8.679687zm0 0" fill="#e3e7ea" data-original="#e3e7ea" class=""></path><path xmlns="http://www.w3.org/2000/svg" d="m390.625 199.824219h-8.679688c-4.792968 0-8.675781-3.886719-8.675781-8.679688s3.882813-8.675781 8.675781-8.675781h8.679688c4.792969 0 8.675781 3.882812 8.675781 8.675781s-3.882812 8.679688-8.675781 8.679688zm0 0" fill="#fccc56" data-original="#fccc56"></path><path xmlns="http://www.w3.org/2000/svg" d="m451.371094 199.824219h-8.679688c-4.792968 0-8.679687-3.886719-8.679687-8.679688s3.886719-8.675781 8.679687-8.675781h8.679688c4.792968 0 8.675781 3.882812 8.675781 8.675781s-3.882813 8.679688-8.675781 8.679688zm0 0" fill="#73aff3" data-original="#73aff3"></path><path xmlns="http://www.w3.org/2000/svg" d="m420.996094 165.113281h-8.675782c-4.792968 0-8.679687-3.886719-8.679687-8.679687 0-4.792969 3.886719-8.679688 8.679687-8.679688h8.675782c4.792968 0 8.679687 3.886719 8.679687 8.679688 0 4.792968-3.886719 8.679687-8.679687 8.679687zm0 0" fill="#9dd16a" data-original="#9dd16a" class=""></path><path xmlns="http://www.w3.org/2000/svg" d="m420.996094 234.535156h-8.675782c-4.792968 0-8.679687-3.886718-8.679687-8.679687 0-4.789063 3.886719-8.675781 8.679687-8.675781h8.675782c4.792968 0 8.679687 3.886718 8.679687 8.675781 0 4.792969-3.886719 8.679687-8.679687 8.679687zm0 0" fill="#d11e38" data-original="#d11e38"></path><path xmlns="http://www.w3.org/2000/svg" d="m99.128906 87.703125c-1.535156 2.777344-4.460937 4.503906-7.632812 4.511719-1.453125-.003906-2.882813-.359375-4.167969-1.039063-4.1875-2.324219-5.730469-7.582031-3.46875-11.800781.253906-.511719.542969-1.003906.867187-1.476562l20.914063-4.425782c4.597656-6.160156-.78125 3.644532-6.511719 14.230469zm0 0" fill="#d84452" data-original="#d84452"></path><path xmlns="http://www.w3.org/2000/svg" d="m277.808594 87.011719c-.003906 1.003906-.179688 2.003906-.519532 2.949219l-33.671874 92.507812h-17.875c.003906-1.007812.179687-2.003906.519531-2.953125l33.671875-92.503906zm0 0" fill="#8feaff" data-original="#8feaff"></path><path xmlns="http://www.w3.org/2000/svg" d="m277.808594 60.976562h-52.066406c-4.792969 0-8.679688-3.886718-8.679688-8.679687s3.886719-8.675781 8.679688-8.675781h52.066406c4.792968 0 8.679687 3.882812 8.679687 8.675781s-3.886719 8.679687-8.679687 8.679687zm0 0" fill="#c9cfd6" data-original="#c9cfd6" class=""></path><path xmlns="http://www.w3.org/2000/svg" d="m260.453125 451.484375v52.066406c0 4.792969-3.882813 8.679688-8.675781 8.679688-4.792969 0-8.679688-3.886719-8.679688-8.679688v-52.066406zm0 0" fill="#636c77" data-original="#636c77" class=""></path></g></svg>