<svg xmlns="http://www.w3.org/2000/svg" version="1.1" xmlns:xlink="http://www.w3.org/1999/xlink" xmlns:svgjs="http://svgjs.com/svgjs" width="512" height="512" x="0" y="0" viewBox="0 0 512.00001 512" style="enable-background:new 0 0 512 512" xml:space="preserve" class=""><g><path xmlns="http://www.w3.org/2000/svg" d="m497.753906 209.539062-15.769531-71.148437c9.269531-29.808594.199219-62.285156-23.171875-82.980469v-28.925781c0-14.628906-11.855469-26.484375-26.480469-26.484375h-35.3125c-14.625 0-26.480469 11.855469-26.480469 26.484375v16.9375l-.761718.714844h-227.554688l-.980468-.980469v-16.671875c0-14.628906-11.859376-26.484375-26.484376-26.484375h-35.308593c-14.628907 0-26.484375 11.855469-26.484375 26.484375v29.171875c-23.175782 20.714844-32.128906 53.050781-22.90625 82.734375l-15.8125 71.148437c-9.46875 42.617188-14.246094 86.140626-14.246094 129.792969 0 27.105469 21.972656 49.082031 49.082031 49.082031 18.671875.296876 35.8125-10.292968 43.898438-27.128906 10.789062-23.726562 39.433593-96.457031 39.433593-96.457031 11.613282 17.703125 31.832032 27.816406 52.964844 26.480469 29.253906 0 52.964844-23.710938 52.964844-52.964844h35.3125c0 14.046875 5.578125 27.519531 15.511719 37.453125 9.933593 9.933594 23.40625 15.511719 37.453125 15.511719 21.132812 1.335937 41.351562-8.777344 52.964844-26.480469 0 0 21.441406 60.539063 39.425781 96.503906 8.308593 16.609375 25.296875 27.097657 43.871093 27.082031 13.023438.007813 25.515626-5.15625 34.730469-14.363281 9.210938-9.207031 14.386719-21.695312 14.386719-34.71875 0-43.652343-4.777344-87.175781-14.246094-129.792969zm0 0" fill="#c9cfd6" data-original="#c9cfd6" class=""></path><g xmlns="http://www.w3.org/2000/svg" fill="#a8afba"><path d="m183.347656 132.503906c7.542969-32.921875-6.550781-67.007812-35.132812-84.992187-28.585938-17.984375-65.417969-15.929688-91.824219 5.117187-26.410156 21.050782-36.628906 56.496094-25.472656 88.371094s41.242187 53.21875 75.011719 53.207031c9.09375.042969 18.125-1.542969 26.660156-4.679687zm0 0" fill="#a8afba" data-original="#a8afba" class=""></path><path d="m328.652344 132.503906c-7.542969-32.921875 6.550781-67.007812 35.132812-84.992187 28.585938-17.984375 65.417969-15.929688 91.824219 5.117187 26.410156 21.050782 36.628906 56.496094 25.472656 88.371094s-41.242187 53.21875-75.011719 53.207031c-9.09375.042969-18.125-1.542969-26.660156-4.679687zm0 0" fill="#a8afba" data-original="#a8afba" class=""></path><path d="m238.34375 185.378906v52.964844c0 29.253906-23.710938 52.964844-52.964844 52.964844-21.132812 1.351562-41.363281-8.761719-52.964844-26.480469v-79.449219zm0 0" fill="#a8afba" data-original="#a8afba" class=""></path></g><path xmlns="http://www.w3.org/2000/svg" d="m238.34375 185.378906c0 29.253906-23.710938 52.964844-52.964844 52.964844-29.25 0-52.964844-23.710938-52.964844-52.964844 0-29.25 23.714844-52.964844 52.964844-52.964844 29.253906 0 52.964844 23.714844 52.964844 52.964844zm0 0" fill="#929ba8" data-original="#929ba8" class=""></path><path xmlns="http://www.w3.org/2000/svg" d="m211.863281 185.378906c0 14.625-11.859375 26.484375-26.484375 26.484375s-26.480468-11.859375-26.480468-26.484375 11.855468-26.480468 26.480468-26.480468 26.484375 11.855468 26.484375 26.480468zm0 0" fill="#424852" data-original="#424852" class=""></path><path xmlns="http://www.w3.org/2000/svg" d="m273.65625 185.378906v52.964844c0 29.253906 23.710938 52.964844 52.964844 52.964844 21.132812 1.351562 41.363281-8.761719 52.964844-26.480469v-79.449219zm0 0" fill="#a8afba" data-original="#a8afba" class=""></path><path xmlns="http://www.w3.org/2000/svg" d="m379.585938 185.378906c0 29.253906-23.714844 52.964844-52.964844 52.964844-29.253906 0-52.964844-23.710938-52.964844-52.964844 0-29.25 23.710938-52.964844 52.964844-52.964844 29.25 0 52.964844 23.714844 52.964844 52.964844zm0 0" fill="#929ba8" data-original="#929ba8" class=""></path><path xmlns="http://www.w3.org/2000/svg" d="m353.101562 185.378906c0 14.625-11.855468 26.484375-26.480468 26.484375s-26.484375-11.859375-26.484375-26.484375 11.859375-26.480468 26.484375-26.480468 26.480468 11.855468 26.480468 26.480468zm0 0" fill="#424852" data-original="#424852" class=""></path><path xmlns="http://www.w3.org/2000/svg" d="m458.769531 26.484375v28.863281c-7.714843-6.875-16.714843-12.15625-26.484375-15.535156v-13.328125c0-14.628906-11.855468-26.484375-26.480468-26.484375h26.480468c14.628906 0 26.484375 11.855469 26.484375 26.484375zm0 0" fill="#a8afba" data-original="#a8afba" class=""></path><path xmlns="http://www.w3.org/2000/svg" d="m512 339.332031c-.023438 27.097657-21.984375 49.058594-49.082031 49.082031-4.480469.015626-8.9375-.609374-13.242188-1.855468 8.128907-2.222656 15.527344-6.546875 21.453125-12.535156 9.234375-9.175782 14.417969-21.667969 14.386719-34.691407.007813-43.644531-4.757813-87.15625-14.210937-129.765625l-8.738282-39.015625c8.9375-9 15.570313-20.023437 19.332032-32.132812l15.890624 71.148437c9.449219 42.609375 14.214844 86.121094 14.210938 129.765625zm0 0" fill="#a8afba" data-original="#a8afba" class=""></path><path xmlns="http://www.w3.org/2000/svg" d="m485.515625 114.757812c0 43.878907-35.570313 79.449219-79.445313 79.449219-2.980468.003907-5.957031-.175781-8.917968-.53125 40.214844-4.445312 70.660156-38.417969 70.683594-78.878906.019531-40.460937-30.382813-74.46875-70.59375-78.957031 2.929687-.355469 5.875-.53125 8.828124-.53125 43.875 0 79.445313 35.570312 79.445313 79.449218zm0 0" fill="#99a0aa" data-original="#99a0aa"></path><path xmlns="http://www.w3.org/2000/svg" d="m132.414062 105.929688h-17.65625v-17.652344c0-4.875-3.953124-8.828125-8.828124-8.828125s-8.828126 3.953125-8.828126 8.828125v17.652344h-17.652343c-4.875 0-8.828125 3.953124-8.828125 8.828124s3.953125 8.828126 8.828125 8.828126h17.652343v17.65625c0 4.875 3.953126 8.828124 8.828126 8.828124s8.828124-3.953124 8.828124-8.828124v-17.65625h17.65625c4.875 0 8.828126-3.953126 8.828126-8.828126s-3.953126-8.828124-8.828126-8.828124zm0 0" fill="#636c77" data-original="#636c77"></path><path xmlns="http://www.w3.org/2000/svg" d="m406.070312 97.101562c-4.875 0-8.828124-3.949218-8.828124-8.824218v-8.828125c0-4.875 3.953124-8.828125 8.828124-8.828125s8.828126 3.953125 8.828126 8.828125v8.828125c0 4.875-3.953126 8.824218-8.828126 8.824218zm0 0" fill="#b3de80" data-original="#b3de80"></path><path xmlns="http://www.w3.org/2000/svg" d="m379.585938 123.585938h-8.828126c-4.875 0-8.828124-3.953126-8.828124-8.828126s3.953124-8.828124 8.828124-8.828124h8.828126c4.875 0 8.828124 3.953124 8.828124 8.828124s-3.953124 8.828126-8.828124 8.828126zm0 0" fill="#d46fab" data-original="#d46fab"></path><path xmlns="http://www.w3.org/2000/svg" d="m406.070312 158.898438c-4.875 0-8.828124-3.953126-8.828124-8.828126v-8.828124c0-4.875 3.953124-8.828126 8.828124-8.828126s8.828126 3.953126 8.828126 8.828126v8.828124c0 4.875-3.953126 8.828126-8.828126 8.828126zm0 0" fill="#66d3f0" data-original="#66d3f0"></path><path xmlns="http://www.w3.org/2000/svg" d="m441.378906 123.585938h-8.828125c-4.875 0-8.828125-3.953126-8.828125-8.828126s3.953125-8.828124 8.828125-8.828124h8.828125c4.875 0 8.828125 3.953124 8.828125 8.828124s-3.953125 8.828126-8.828125 8.828126zm0 0" fill="#ea5463" data-original="#ea5463"></path><path xmlns="http://www.w3.org/2000/svg" d="m229.515625 114.757812h-8.824219c-4.878906 0-8.828125-3.953124-8.828125-8.828124s3.949219-8.828126 8.828125-8.828126h8.824219c4.878906 0 8.828125 3.953126 8.828125 8.828126s-3.949219 8.828124-8.828125 8.828124zm0 0" fill="#424852" data-original="#424852" class=""></path><path xmlns="http://www.w3.org/2000/svg" d="m291.308594 114.757812h-8.824219c-4.878906 0-8.828125-3.953124-8.828125-8.828124s3.949219-8.828126 8.828125-8.828126h8.824219c4.878906 0 8.828125 3.953126 8.828125 8.828126s-3.949219 8.828124-8.828125 8.828124zm0 0" fill="#424852" data-original="#424852" class=""></path></g></svg>