<svg xmlns="http://www.w3.org/2000/svg" version="1.1" xmlns:xlink="http://www.w3.org/1999/xlink" xmlns:svgjs="http://svgjs.com/svgjs" width="512" height="512" x="0" y="0" viewBox="0 0 504.5 504.5" style="enable-background:new 0 0 512 512" xml:space="preserve" class=""><g><g xmlns="http://www.w3.org/2000/svg"><g><path d="m252.25 230c-4.142 0-7.5-1.357-7.5-5.5 0-19.139 3.248-30.836 6.388-40.214 2.886-8.617 5.612-16.757 5.612-33.45 0-16.694-2.726-24.835-5.612-33.452-3.141-9.379-6.388-19.076-6.388-38.216s3.248-28.837 6.388-38.216c2.886-8.617 5.612-16.758 5.612-33.452 0-4.143 3.358-7.5 7.5-7.5s7.5 3.357 7.5 7.5c0 19.14-3.248 28.837-6.388 38.216-2.886 8.617-5.612 16.758-5.612 33.452s2.726 24.835 5.612 33.452c3.141 9.379 6.388 19.076 6.388 38.216 0 19.139-3.248 28.836-6.388 38.214-2.886 8.617-5.612 18.757-5.612 35.45 0 4.143-3.358 5.5-7.5 5.5z" fill="#212121" data-original="#d1c7c1" class=""></path></g><g><path d="m265.25 224.5h-21l-3 2c-5.523 0-10 4.477-10 10v27h42l2-15v-14c0-5.523-4.477-10-10-10z" fill="#272727" data-original="#ddd3ce" class=""></path><path d="m244.25 243.5v-19h-5c-5.523 0-10 4.477-10 10v34h46v-20h-26c-2.761 0-5-2.239-5-5z" fill="#212121" data-original="#d1c7c1" class=""></path></g><g><path d="m489.335 500.782-474.489-3.596c-2.761 0-5-2.239-5-5l-1.702-218.893c0-2.761 2.239-5 5-5l5.606-4.793h467c8.284 0 15 6.716 15 15v211l-6.415 6.282c0 2.761-2.238 5-5 5z" fill="#4b4b4b" data-original="#36c991" class=""></path><path d="m23.75 489.5c-2.761 0-5-2.239-5-5v-221c-8.284 0-15 6.716-15 15v211c0 8.284 6.716 15 15 15h467c8.284 0 15-6.716 15-15z" fill="#2f2f2f" data-original="#22ba87" class=""></path></g><g><path d="m463.75 472.5h-423c-2.761 0-5-2.239-5-5v-167c0-2.761 2.239-5 5-5h423c2.761 0 5 2.239 5 5l2 23v136l-2 8c0 2.761-2.239 5-5 5z" fill="#2f2f2f" data-original="#f7f3f1" class=""></path><path d="m53.75 459.5c-2.761 0-5-2.239-5-5v-131l-1.16-1.351h-12.638l-1.202 1.351v146c0 2.761 2.239 5 5 5h427c2.761 0 5-2.239 5-5v-10z" fill="#737373" data-original="#eae2df" class=""></path></g><g><g><g><path d="m380.75 399c0-8.284-6.716-15-15-15-1.514 0-2.976.227-4.354.644-6.161 1.866-8.646 12.229-8.646 14.356 0 8.284 4.716 13 13 13 2.266 0 12.49-2.485 14.356-8.646.417-1.378.644-2.84.644-4.354z" fill="#636161" data-original="#fc5461" class=""></path><path d="m375.75 404c-8.284 0-15-6.716-15-15 0-1.515.229-2.977.646-4.356-6.16 1.866-10.646 7.586-10.646 14.356 0 8.284 6.716 15 15 15 6.77 0 12.49-4.486 14.356-10.646-1.379.417-2.841.646-4.356.646z" fill="#434343" data-original="#dd3652" class=""></path></g><g><path d="m440.75 399c0-8.284-6.716-15-15-15-1.514 0-2.976.227-4.354.644-6.161 1.866-9.38 12.735-9.38 14.679 0 8.284 5.758 13.506 14.043 13.506.495 0 12.181-3.315 14.047-9.476.417-1.377.644-2.839.644-4.353z" fill="#636161" data-original="#fc5461" class=""></path><path d="m435.75 404c-8.284 0-15-6.716-15-15 0-1.515.229-2.977.646-4.356-6.16 1.866-10.646 7.586-10.646 14.356 0 8.284 6.716 15 15 15 6.77 0 12.49-4.486 14.356-10.646-1.379.417-2.841.646-4.356.646z" fill="#434343" data-original="#dd3652" class=""></path></g><g><path d="m375.75 451.5h-20c-4.142 0-7.5-3.357-7.5-7.5s3.358-7.5 7.5-7.5h20c4.142 0 7.5 3.357 7.5 7.5s-3.358 7.5-7.5 7.5z" fill="#737373" data-original="#eae2df" class=""></path></g><g><path d="m435.75 451.5h-20c-4.142 0-7.5-3.357-7.5-7.5s3.358-7.5 7.5-7.5h20c4.142 0 7.5 3.357 7.5 7.5s-3.358 7.5-7.5 7.5z" fill="#737373" data-original="#eae2df" class=""></path></g></g><g><path d="m425.75 361.5h-60c-4.142 0-7.5-3.357-7.5-7.5s3.358-7.5 7.5-7.5h60c4.142 0 7.5 3.357 7.5 7.5s-3.358 7.5-7.5 7.5z" fill="#737373" data-original="#eae2df" class=""></path></g></g><g><path d="m465.75 293.5h-417l-8 2c-2.761 0-5 2.239-5 5v21l13 2h422v-25c0-2.761-2.239-5-5-5z" fill="#737373" data-original="#eae2df" class=""></path><path d="m48.75 293.5h-10c-.69 0-1.348.14-1.946.393-1.196.506-2.155 1.464-2.661 2.661-.253.598-.393 1.256-.393 1.946v25h15z" fill="#272727" data-original="#ddd3ce" class=""></path></g><g><g><path d="m300.25 442h-96c-8.284 0-15-6.716-15-15v-25.751c0-8.284 4.716-17 13-17h100c8.284 0 15 6.716 15 15v29.751c0 8.284-8.716 13-17 13z" fill="#737373" data-original="#eae2df" class=""></path><path d="m202.25 384.249c-8.284 0-15 6.716-15 15v29.751c0 8.284 6.716 15 15 15h100c8.284 0 15-6.716 15-15h-112c-1.657 0-3-1.343-3-3z" fill="#272727" data-original="#ddd3ce" class=""></path></g><g><g><path d="m287 422.62h-20c-4.142 0-7.5-3.357-7.5-7.5s3.358-7.5 7.5-7.5h20c4.142 0 7.5 3.357 7.5 7.5s-3.358 7.5-7.5 7.5z" fill="#272727" data-original="#ddd3ce" class=""></path></g><g><path d="m237.5 422.62h-20c-4.142 0-7.5-3.357-7.5-7.5s3.358-7.5 7.5-7.5h20c4.142 0 7.5 3.357 7.5 7.5s-3.358 7.5-7.5 7.5z" fill="#272727" data-original="#ddd3ce" class=""></path></g></g><g fill="#eae2df"><circle cx="237.25" cy="353.5" r="7.5" fill="#737373" data-original="#eae2df" class=""></circle><circle cx="267.25" cy="353.5" r="7.5" fill="#737373" data-original="#eae2df" class=""></circle></g></g><g><path d="m148.75 382.273h-20.818c-1.356 0-2.455-1.099-2.455-2.455v-20.818c0-2.761-2.239-5-5-5h-16.174l-2.463 1.636c-4.519 0-8.182 3.663-8.182 8.182v16c0 1.356-2.576 2.442-3.931 2.442l-20.98.01c-2.761.001-4.998 2.239-4.998 5v16.184l1.636 2.455c0 4.519 3.663 8.182 8.182 8.182h17.636c1.356 0 2.455 1.099 2.455 2.455v17.636c0 4.519 3.663 8.182 8.182 8.182l2.455 1.636h16.182c2.761 0 5-2.239 5-5v-20.818c0-1.356 1.099-2.455 2.455-2.455h20.818c2.761 0 5-2.239 5-5v-23.455c0-2.761-2.239-4.999-5-4.999z" fill="#575757" data-original="#8e73ff" class=""></path><g fill="#7d67e5"><path d="m104.295 405.909v38.091h-7.273c-2.761 0-5-2.239-5-5v-20.818c0-1.356-1.099-2.455-2.455-2.455h-20.817c-2.761 0-5-2.239-5-5v-7.273h38.091c1.356.001 2.454 1.099 2.454 2.455z" fill="#434040" data-original="#7d67e5" class=""></path><path d="m104.353 379.794c0 1.35-1.096 2.455-2.455 2.455l-12.17.012c1.203-.147 2.295-1.19 2.295-2.442v-20.819c0-2.761 2.239-5 5-5h7.281z" fill="#434040" data-original="#7d67e5" class=""></path></g></g></g></g></svg>