<svg xmlns="http://www.w3.org/2000/svg" version="1.1" xmlns:xlink="http://www.w3.org/1999/xlink" xmlns:svgjs="http://svgjs.com/svgjs" width="512" height="512" x="0" y="0" viewBox="0 0 512 512" style="enable-background:new 0 0 512 512" xml:space="preserve" class=""><g><path xmlns="http://www.w3.org/2000/svg" d="m0 300.136719v52.964843c.0273438 9.742188 7.917969 17.628907 17.65625 17.65625h476.6875c9.738281-.027343 17.628906-7.914062 17.65625-17.65625v-335.445312c-.027344-9.738281-7.917969-17.6289062-17.65625-17.65625h-476.6875c-9.738281.0273438-17.6289062 7.917969-17.65625 17.65625zm0 0" fill="#c9cfd6" data-original="#c9cfd6" class=""></path><path xmlns="http://www.w3.org/2000/svg" d="m476.691406 35.308594c9.75 0 17.652344 7.90625 17.652344 17.65625v247.171875c.300781 9.402343-7.039062 17.28125-16.4375 17.65625h-443.8125c-9.398438-.375-16.738281-8.253907-16.4375-17.65625v-247.171875c0-9.75 7.902344-17.65625 17.652344-17.65625zm0 0" fill="#636c77" data-original="#636c77" class=""></path><path xmlns="http://www.w3.org/2000/svg" d="m211.863281 176.550781h105.929688c9.75 0 17.65625 7.90625 17.65625 17.65625v35.308594c0 9.753906-7.90625 17.65625-17.65625 17.65625h-105.929688c-9.75 0-17.65625-7.902344-17.65625-17.65625v-35.308594c0-9.75 7.90625-17.65625 17.65625-17.65625zm0 0" fill="#ffffff" data-original="#ffffff"></path><path xmlns="http://www.w3.org/2000/svg" d="m406.070312 211.863281c0 9.75-7.90625 17.652344-17.65625 17.652344s-17.65625-7.902344-17.65625-17.652344 7.90625-17.65625 17.65625-17.65625 17.65625 7.90625 17.65625 17.65625zm0 0" fill="#f66c81" data-original="#f66c81"></path><path xmlns="http://www.w3.org/2000/svg" d="m476.691406 211.863281c0 9.75-7.90625 17.652344-17.65625 17.652344s-17.65625-7.902344-17.65625-17.652344 7.90625-17.65625 17.65625-17.65625 17.65625 7.90625 17.65625 17.65625zm0 0" fill="#f66c81" data-original="#f66c81"></path><path xmlns="http://www.w3.org/2000/svg" d="m150.070312 176.550781h-35.3125v-35.308593c0-4.875-3.953124-8.828126-8.828124-8.828126h-17.652344c-4.875 0-8.828125 3.953126-8.828125 8.828126v35.308593h-35.3125c-4.875 0-8.828125 3.953125-8.828125 8.828125v17.65625c0 4.875 3.953125 8.828125 8.828125 8.828125h35.3125v35.308594c0 4.875 3.953125 8.828125 8.828125 8.828125h17.652344c4.875 0 8.828124-3.953125 8.828124-8.828125v-35.308594h35.3125c4.875 0 8.828126-3.953125 8.828126-8.828125v-17.65625c0-4.875-3.953126-8.828125-8.828126-8.828125zm0 0" fill="#424852" data-original="#424852" class=""></path><g xmlns="http://www.w3.org/2000/svg" fill="#a8afba"><path d="m211.863281 105.929688h105.929688c4.875 0 8.828125 3.953124 8.828125 8.828124v17.65625c0 4.875-3.953125 8.828126-8.828125 8.828126h-105.929688c-4.875 0-8.828125-3.953126-8.828125-8.828126v-17.65625c0-4.875 3.953125-8.828124 8.828125-8.828124zm0 0" fill="#a8afba" data-original="#a8afba"></path><path d="m317.792969 282.484375h-105.929688c-9.75 0-17.65625 7.902344-17.65625 17.652344v17.65625h141.242188v-17.65625c0-9.75-7.90625-17.652344-17.65625-17.652344zm0 0" fill="#a8afba" data-original="#a8afba"></path><path d="m326.621094 35.308594h-123.585938v17.65625c0 9.75 7.902344 17.65625 17.65625 17.65625h88.273438c9.75 0 17.65625-7.90625 17.65625-17.65625zm0 0" fill="#a8afba" data-original="#a8afba"></path><path d="m512 17.65625v335.445312c-.027344 9.742188-7.917969 17.628907-17.65625 17.65625h-17.652344c9.738282-.027343 17.625-7.914062 17.652344-17.65625v-335.445312c-.027344-9.738281-7.914062-17.6289062-17.652344-17.65625h17.652344c9.738281.0273438 17.628906 7.917969 17.65625 17.65625zm0 0" fill="#a8afba" data-original="#a8afba"></path></g><path xmlns="http://www.w3.org/2000/svg" d="m494.34375 52.964844v247.171875c.292969 9.394531-7.03125 17.269531-16.417969 17.65625h-17.65625c9.390625-.386719 16.714844-8.261719 16.421875-17.65625v-247.171875c-.03125-9.738282-7.917968-17.625-17.65625-17.65625h17.65625c9.738282.03125 17.625 7.917968 17.652344 17.65625zm0 0" fill="#545d66" data-original="#545d66"></path><path xmlns="http://www.w3.org/2000/svg" d="m247.171875 220.691406h-17.65625c-4.875 0-8.824219-3.953125-8.824219-8.828125s3.949219-8.828125 8.824219-8.828125h17.65625c4.875 0 8.828125 3.953125 8.828125 8.828125s-3.953125 8.828125-8.828125 8.828125zm0 0" fill="#424852" data-original="#424852" class=""></path><path xmlns="http://www.w3.org/2000/svg" d="m300.136719 220.691406h-17.652344c-4.878906 0-8.828125-3.953125-8.828125-8.828125s3.949219-8.828125 8.828125-8.828125h17.652344c4.875 0 8.828125 3.953125 8.828125 8.828125s-3.953125 8.828125-8.828125 8.828125zm0 0" fill="#424852" data-original="#424852" class=""></path></g></svg>